<svg xmlns="http://www.w3.org/2000/svg" xmlns:xlink="http://www.w3.org/1999/xlink" width="200" zoomAndPan="magnify" viewBox="0 0 150 149.999998" height="200" preserveAspectRatio="xMidYMid meet" version="1.0"><defs><clipPath id="753806525e"><path d="M 0.410156 0 L 149.660156 0 L 149.660156 58 L 0.410156 58 Z M 0.410156 0 " clip-rule="nonzero"/></clipPath><clipPath id="4ef59b8a54"><path d="M 2.367188 55.648438 L 149.660156 55.648438 L 149.660156 88.230469 L 2.367188 88.230469 Z M 2.367188 55.648438 " clip-rule="nonzero"/></clipPath><clipPath id="12b444ab87"><path d="M 0.410156 56 L 67 56 L 67 148 L 0.410156 148 Z M 0.410156 56 " clip-rule="nonzero"/></clipPath><clipPath id="a3ddc45804"><path d="M 85.246094 56.625 L 149.660156 56.625 L 149.660156 146.550781 L 85.246094 146.550781 Z M 85.246094 56.625 " clip-rule="nonzero"/></clipPath><clipPath id="c8b659a654"><path d="M 3.671875 78.78125 L 147.246094 78.78125 L 147.246094 149.835938 L 3.671875 149.835938 Z M 3.671875 78.78125 " clip-rule="nonzero"/></clipPath><clipPath id="0d3810f391"><path d="M 3.671875 82.039062 L 147.246094 82.039062 L 147.246094 149.835938 L 3.671875 149.835938 Z M 3.671875 82.039062 " clip-rule="nonzero"/></clipPath></defs><g clip-path="url(#753806525e)"><path fill="#fa9a23" d="M 148.195312 52.449219 C 147.75 51.988281 147.210938 51.511719 146.5625 51.023438 L 142.351562 47.839844 L 83.910156 3.675781 C 79.03125 -0.0117188 71.046875 -0.0117188 66.164062 3.675781 L 7.722656 47.839844 L 3.511719 51.023438 C 2.863281 51.511719 2.324219 51.988281 1.882812 52.449219 C 1.253906 53.496094 0.808594 54.65625 0.582031 55.894531 C 1.085938 57.027344 2.851562 57.726562 5.804688 57.726562 L 144.269531 57.726562 C 147.222656 57.726562 148.988281 57.027344 149.492188 55.894531 C 149.269531 54.65625 148.820312 53.496094 148.195312 52.449219 " fill-opacity="1" fill-rule="nonzero"/></g><g clip-path="url(#4ef59b8a54)"><path fill="#fa9a23" d="M 149.617188 56.800781 C 149.589844 56.492188 149.546875 56.191406 149.492188 55.894531 C 148.988281 57.027344 147.222656 57.726562 144.269531 57.726562 L 5.804688 57.726562 C 4.539062 57.726562 3.488281 57.597656 2.667969 57.359375 L 76.550781 88.1875 L 149.617188 56.800781 " fill-opacity="1" fill-rule="nonzero"/></g><path fill="#2d5871" d="M 131.832031 104.574219 C 131.832031 108.003906 129.046875 110.785156 125.613281 110.785156 L 21.960938 110.785156 C 18.527344 110.785156 15.742188 108.003906 15.742188 104.574219 L 15.742188 19.191406 C 15.742188 15.761719 18.527344 12.980469 21.960938 12.980469 L 125.613281 12.980469 C 129.046875 12.980469 131.832031 15.761719 131.832031 19.191406 L 131.832031 104.574219 " fill-opacity="1" fill-rule="nonzero"/><path fill="#ffffff" d="M 82.574219 49.890625 C 81.753906 49.691406 80.628906 49.484375 79.410156 49.484375 C 72.667969 49.484375 67.359375 56.109375 67.359375 63.957031 C 67.359375 67.832031 69.097656 70.277344 72.464844 70.277344 C 76.242188 70.277344 80.222656 65.488281 81.140625 59.578125 Z M 91.65625 91.988281 C 85.53125 94.742188 80.222656 95.660156 72.875 95.660156 C 55.925781 95.660156 41.023438 83.527344 41.023438 63.550781 C 41.023438 42.757812 56.234375 24.714844 79.203125 24.714844 C 97.269531 24.714844 110.132812 37.050781 110.132812 54.171875 C 110.132812 69.15625 101.761719 78.535156 90.738281 78.535156 C 85.9375 78.535156 82.46875 75.988281 81.957031 70.6875 L 81.753906 70.6875 C 78.488281 75.78125 73.996094 78.535156 68.480469 78.535156 C 61.953125 78.535156 57.050781 73.539062 57.050781 65.179688 C 57.050781 52.644531 66.339844 41.429688 81.039062 41.429688 C 85.53125 41.429688 90.636719 42.550781 93.1875 43.878906 L 90.125 62.835938 C 89.105469 68.851562 89.820312 71.601562 92.675781 71.707031 C 97.066406 71.910156 102.578125 66.304688 102.578125 54.480469 C 102.578125 41.125 94.003906 30.933594 78.183594 30.933594 C 62.460938 30.933594 48.882812 43.0625 48.882812 62.632812 C 48.882812 79.757812 59.707031 89.339844 74.914062 89.339844 C 80.121094 89.339844 85.734375 88.21875 89.820312 86.179688 L 91.65625 91.988281 " fill-opacity="1" fill-rule="nonzero"/><g clip-path="url(#12b444ab87)"><path fill="#fdc00f" d="M 2.667969 57.359375 C 2.226562 57.230469 1.847656 57.078125 1.539062 56.890625 L 0.503906 56.457031 C 0.449219 56.875 0.410156 57.296875 0.410156 57.726562 L 0.410156 139.488281 C 0.410156 142.578125 1.789062 145.359375 3.960938 147.257812 L 66.363281 83.933594 L 2.667969 57.359375 " fill-opacity="1" fill-rule="nonzero"/></g><g clip-path="url(#a3ddc45804)"><path fill="#fdc00f" d="M 149.664062 139.488281 L 149.664062 57.726562 C 149.664062 57.414062 149.648438 57.101562 149.617188 56.800781 L 85.386719 84.394531 L 147.027344 146.351562 C 148.660156 144.519531 149.664062 142.117188 149.664062 139.488281 " fill-opacity="1" fill-rule="nonzero"/></g><g clip-path="url(#c8b659a654)"><path fill="#fa9a23" d="M 85.386719 84.394531 L 82.90625 81.90625 C 78.890625 77.867188 72.328125 77.878906 68.332031 81.9375 L 66.363281 83.933594 L 3.960938 147.257812 C 5.789062 148.859375 8.167969 149.835938 10.773438 149.835938 L 139.296875 149.835938 C 142.367188 149.835938 145.128906 148.480469 147.027344 146.351562 L 85.386719 84.394531 " fill-opacity="1" fill-rule="nonzero"/></g><g clip-path="url(#0d3810f391)"><path fill="#fdc00f" d="M 85.386719 87.574219 L 82.90625 85.203125 C 78.890625 81.363281 72.328125 81.378906 68.332031 85.238281 L 66.363281 87.140625 L 3.960938 147.386719 C 5.789062 148.90625 8.167969 149.835938 10.773438 149.835938 L 139.296875 149.835938 C 142.367188 149.835938 145.128906 148.546875 147.027344 146.519531 L 85.386719 87.574219 " fill-opacity="1" fill-rule="nonzero"/></g></svg>