<svg xmlns="http://www.w3.org/2000/svg" xmlns:xlink="http://www.w3.org/1999/xlink" width="300" zoomAndPan="magnify" viewBox="0 0 224.87999 374.999991" height="500" preserveAspectRatio="xMidYMid meet" version="1.0"><defs><clipPath id="e18bf39ae8"><path d="M 4.496094 301 L 220 301 L 220 357 L 4.496094 357 Z M 4.496094 301 " clip-rule="nonzero"/></clipPath></defs><g clip-path="url(#e18bf39ae8)"><path fill="#4377c3" d="M 74.058594 329.039062 C 74.058594 326.972656 76.046875 325.53125 77.800781 324.691406 C 85.480469 321.085938 93.921875 320.042969 102.25 319.515625 C 115.539062 318.65625 129.046875 319.003906 141.910156 322.789062 C 147.074219 324.308594 154.820312 329.566406 146.277344 333.535156 C 140.800781 336.082031 134.875 337.238281 128.964844 337.984375 C 116.566406 339.535156 104.003906 339.339844 91.65625 337.402344 C 86.640625 336.628906 81.574219 335.519531 77.070312 332.972656 C 75.679688 332.195312 74.207031 331.023438 74.074219 329.320312 C 74.058594 329.21875 74.058594 329.136719 74.058594 329.039062 Z M 10.976562 338.3125 C 16.289062 342.148438 22.347656 344.546875 28.441406 346.515625 C 43.785156 351.425781 59.707031 353.738281 75.613281 355.195312 C 110.027344 358.351562 144.839844 357.589844 178.855469 350.878906 C 190.457031 348.582031 202.144531 345.523438 212.355469 338.976562 C 217.289062 335.816406 222.023438 329.453125 217.371094 323.714844 C 212.984375 318.324219 206.480469 315.429688 200.421875 313.230469 C 186.652344 308.222656 172.265625 305.644531 157.867188 303.925781 C 142.703125 302.089844 127.457031 301.179688 112.214844 301.164062 C 98.640625 301.144531 85.050781 301.855469 71.527344 303.277344 C 56.296875 304.898438 41.070312 307.429688 26.421875 312.390625 C 20.558594 314.375 14.71875 316.804688 9.769531 320.835938 C 7.484375 322.722656 5.28125 325.21875 5.015625 328.359375 C 4.667969 332.542969 7.816406 336.03125 10.976562 338.3125 " fill-opacity="1" fill-rule="nonzero"/></g><path fill="#e94153" d="M 52.773438 136.488281 C 52.773438 103.738281 79.355469 77.203125 112.128906 77.203125 C 144.921875 77.203125 171.503906 103.738281 171.503906 136.488281 C 171.503906 169.242188 144.921875 195.777344 112.128906 195.777344 C 79.355469 195.777344 52.773438 169.242188 52.773438 136.488281 Z M 20.046875 176.039062 C 21.15625 178.75 22.28125 181.429688 23.472656 184.105469 C 25.726562 189.316406 28.109375 194.472656 30.589844 199.566406 C 40.65625 220.296875 52.375 240.136719 64.871094 259.53125 C 79.324219 281.902344 94.667969 303.710938 109.613281 325.765625 C 110.242188 326.707031 110.988281 327.566406 112.164062 329.070312 C 120.375 317.332031 128.351562 306.15625 136.066406 294.8125 C 137.984375 291.96875 139.90625 289.144531 141.808594 286.28125 C 143.367188 283.984375 144.921875 281.671875 146.445312 279.371094 C 158.128906 261.714844 169.386719 243.777344 179.699219 225.273438 C 180.90625 223.09375 182.113281 220.910156 183.289062 218.695312 C 186.78125 212.246094 190.160156 205.714844 193.386719 199.101562 C 199.03125 187.527344 203.882812 175.527344 208.351562 163.457031 C 217.207031 139.515625 214.839844 115.890625 203.78125 93.386719 C 187.445312 60.207031 160.546875 40.597656 123.75 35.785156 C 71.113281 28.875 20.90625 66.753906 11.753906 118.933594 C 8.210938 139.101562 12.550781 157.703125 20.046875 176.039062 " fill-opacity="1" fill-rule="nonzero"/></svg>