<svg xmlns="http://www.w3.org/2000/svg" xmlns:xlink="http://www.w3.org/1999/xlink" width="200" zoomAndPan="magnify" viewBox="0 0 150 225" height="300" preserveAspectRatio="xMidYMid meet" version="1.0"><defs><clipPath id="82941878ff"><path d="M 4.636719 0 L 145.636719 0 L 145.636719 224.917969 L 4.636719 224.917969 Z M 4.636719 0 " clip-rule="nonzero"/></clipPath></defs><rect x="-15" width="180" fill="#ffffff" y="-22.5" height="270" fill-opacity="1"/><path fill="#98deea" d="M 135.0625 221.402344 L 15.210938 221.402344 C 11.316406 221.402344 8.160156 218.257812 8.160156 214.371094 L 8.160156 10.464844 C 8.160156 6.578125 11.316406 3.433594 15.210938 3.433594 L 135.0625 3.433594 C 138.957031 3.433594 142.113281 6.578125 142.113281 10.464844 L 142.113281 214.371094 C 142.113281 218.257812 138.957031 221.402344 135.0625 221.402344 " fill-opacity="1" fill-rule="nonzero"/><path fill="#82d0d8" d="M 138.585938 210.855469 C 72.394531 210.855469 18.738281 157.339844 18.738281 91.324219 L 18.738281 3.433594 L 15.210938 3.433594 C 11.316406 3.433594 8.160156 6.578125 8.160156 10.464844 L 8.160156 214.371094 C 8.160156 218.257812 11.316406 221.402344 15.210938 221.402344 L 135.0625 221.402344 C 138.957031 221.402344 142.113281 218.257812 142.113281 214.371094 L 142.113281 210.855469 L 138.585938 210.855469 " fill-opacity="1" fill-rule="nonzero"/><path fill="#7a838b" d="M 135.0625 221.402344 L 15.210938 221.402344 C 11.316406 221.402344 8.160156 218.257812 8.160156 214.371094 L 8.160156 193.277344 L 142.113281 193.277344 L 142.113281 214.371094 C 142.113281 218.257812 138.957031 221.402344 135.0625 221.402344 " fill-opacity="1" fill-rule="nonzero"/><path fill="#5d6972" d="M 76.003906 193.277344 L 8.160156 193.277344 L 8.160156 214.371094 C 8.160156 218.257812 11.316406 221.402344 15.210938 221.402344 L 135.0625 221.402344 C 138.957031 221.402344 142.113281 218.257812 142.113281 214.371094 L 142.113281 210.855469 L 138.585938 210.855469 C 115.644531 210.855469 94.222656 204.414062 76.003906 193.277344 " fill-opacity="1" fill-rule="nonzero"/><path fill="#7a838b" d="M 142.113281 24.527344 L 8.160156 24.527344 L 8.160156 10.464844 C 8.160156 6.578125 11.316406 3.433594 15.210938 3.433594 L 135.0625 3.433594 C 138.957031 3.433594 142.113281 6.578125 142.113281 10.464844 L 142.113281 24.527344 " fill-opacity="1" fill-rule="nonzero"/><path fill="#5d6972" d="M 25.785156 3.433594 L 15.210938 3.433594 C 11.316406 3.433594 8.160156 6.578125 8.160156 10.464844 L 8.160156 24.527344 L 18.738281 24.527344 L 18.738281 10.464844 C 18.738281 6.578125 21.890625 3.433594 25.785156 3.433594 " fill-opacity="1" fill-rule="nonzero"/><g clip-path="url(#82941878ff)"><path fill="#000000" d="M 11.6875 21.011719 L 11.6875 10.464844 C 11.6875 8.53125 13.269531 6.949219 15.210938 6.949219 L 135.0625 6.949219 C 137.003906 6.949219 138.585938 8.53125 138.585938 10.464844 L 138.585938 21.011719 Z M 138.585938 196.792969 L 138.585938 214.371094 C 138.585938 216.304688 137.003906 217.886719 135.0625 217.886719 L 15.210938 217.886719 C 13.269531 217.886719 11.6875 216.304688 11.6875 214.371094 L 11.6875 196.792969 Z M 135.0625 -0.0820312 L 15.210938 -0.0820312 C 9.375 -0.0820312 4.636719 4.644531 4.636719 10.464844 L 4.636719 214.371094 C 4.636719 220.191406 9.375 224.917969 15.210938 224.917969 L 135.0625 224.917969 C 140.898438 224.917969 145.636719 220.191406 145.636719 214.371094 L 145.636719 70.230469 C 145.636719 68.292969 144.054688 66.714844 142.113281 66.714844 C 140.167969 66.714844 138.585938 68.292969 138.585938 70.230469 L 138.585938 189.761719 L 11.6875 189.761719 L 11.6875 28.042969 L 123.027344 28.042969 L 76.167969 74.777344 C 74.792969 76.148438 74.792969 78.375 76.167969 79.746094 C 76.859375 80.433594 77.753906 80.777344 78.660156 80.777344 C 79.570312 80.777344 80.464844 80.433594 81.152344 79.746094 L 132.996094 28.042969 L 138.585938 28.042969 L 138.585938 56.167969 C 138.585938 58.105469 140.167969 59.683594 142.113281 59.683594 C 144.054688 59.683594 145.636719 58.105469 145.636719 56.167969 L 145.636719 10.464844 C 145.636719 4.644531 140.898438 -0.0820312 135.0625 -0.0820312 " fill-opacity="1" fill-rule="nonzero"/></g><path fill="#000000" d="M 71.613281 210.855469 L 78.660156 210.855469 C 80.601562 210.855469 82.1875 209.277344 82.1875 207.339844 C 82.1875 205.402344 80.601562 203.824219 78.660156 203.824219 L 71.613281 203.824219 C 69.667969 203.824219 68.085938 205.402344 68.085938 207.339844 C 68.085938 209.277344 69.667969 210.855469 71.613281 210.855469 " fill-opacity="1" fill-rule="nonzero"/><path fill="#000000" d="M 74.105469 43.136719 C 72.726562 41.761719 70.496094 41.761719 69.117188 43.136719 L 26.820312 85.324219 C 25.441406 86.695312 25.441406 88.921875 26.820312 90.292969 C 27.507812 90.980469 28.402344 91.324219 29.3125 91.324219 C 30.21875 91.324219 31.113281 90.980469 31.804688 90.292969 L 74.105469 48.109375 C 75.480469 46.734375 75.480469 44.507812 74.105469 43.136719 " fill-opacity="1" fill-rule="nonzero"/><path fill="#000000" d="M 111.417969 113.449219 L 83.21875 141.574219 C 81.84375 142.945312 81.84375 145.171875 83.21875 146.542969 C 83.90625 147.230469 84.800781 147.574219 85.710938 147.574219 C 86.621094 147.574219 87.515625 147.230469 88.203125 146.542969 L 116.402344 118.417969 C 117.78125 117.046875 117.78125 114.820312 116.402344 113.449219 C 115.027344 112.074219 112.796875 112.074219 111.417969 113.449219 " fill-opacity="1" fill-rule="nonzero"/><path fill="#000000" d="M 57.511719 175.699219 C 58.421875 175.699219 59.316406 175.355469 60.003906 174.667969 L 74.105469 160.605469 C 75.480469 159.234375 75.480469 157.007812 74.105469 155.636719 C 72.726562 154.261719 70.496094 154.261719 69.117188 155.636719 L 55.019531 169.699219 C 53.640625 171.070312 53.640625 173.296875 55.019531 174.667969 C 55.707031 175.355469 56.601562 175.699219 57.511719 175.699219 " fill-opacity="1" fill-rule="nonzero"/><path fill="#000000" d="M 70.578125 85.324219 C 69.203125 83.949219 66.972656 83.949219 65.59375 85.324219 L 44.445312 106.417969 C 43.066406 107.789062 43.066406 110.015625 44.445312 111.386719 C 45.132812 112.074219 46.027344 112.417969 46.9375 112.417969 C 47.84375 112.417969 48.738281 112.074219 49.429688 111.386719 L 70.578125 90.292969 C 71.957031 88.921875 71.957031 86.695312 70.578125 85.324219 " fill-opacity="1" fill-rule="nonzero"/><path fill="#ffffff" d="M 135.0625 52.652344 C 133.121094 52.652344 131.535156 51.074219 131.535156 49.136719 L 131.535156 38.589844 C 131.535156 36.65625 133.121094 35.074219 135.0625 35.074219 C 137.003906 35.074219 138.585938 36.65625 138.585938 38.589844 L 138.585938 49.136719 C 138.585938 51.074219 137.003906 52.652344 135.0625 52.652344 " fill-opacity="1" fill-rule="nonzero"/></svg>