<svg xmlns="http://www.w3.org/2000/svg" xmlns:xlink="http://www.w3.org/1999/xlink" width="200" zoomAndPan="magnify" viewBox="0 0 150 187.499995" height="250" preserveAspectRatio="xMidYMid meet" version="1.0"><defs><clipPath id="523989abe5"><path d="M 19 11 L 149.800781 11 L 149.800781 152 L 19 152 Z M 19 11 " clip-rule="nonzero"/></clipPath><clipPath id="ac6decf7cd"><path d="M 5 2.882812 L 50 2.882812 L 50 152 L 5 152 Z M 5 2.882812 " clip-rule="nonzero"/></clipPath><clipPath id="f3de06d832"><path d="M 0.199219 2.882812 L 45 2.882812 L 45 152 L 0.199219 152 Z M 0.199219 2.882812 " clip-rule="nonzero"/></clipPath></defs><path stroke-linecap="round" transform="matrix(0.0528753, 0, 0, -0.0527901, -37.386494, 202.387974)" fill="none" stroke-linejoin="round" d="M 1448.199114 1545.501573 C 1153.726911 1388.112352 1042.616477 1021.832783 1199.973675 727.329211 C 1325.93331 491.800349 1618.927981 402.931306 1854.520518 528.872281 C 2042.979773 629.580664 2114.122957 863.999587 2013.355249 1052.393079 C 1932.755858 1203.196667 1745.256999 1260.099493 1594.47482 1179.517988 " stroke="#385d97" stroke-width="90" stroke-opacity="1" stroke-miterlimit="10"/><g clip-path="url(#523989abe5)"><path fill="#385d97" d="M 149.710938 136.980469 C 149.710938 145.121094 142.800781 151.722656 134.277344 151.722656 L 34.808594 151.722656 C 26.285156 151.722656 19.375 145.121094 19.375 136.980469 L 19.375 26.046875 C 19.375 17.902344 26.285156 11.300781 34.808594 11.300781 L 134.277344 11.300781 C 142.800781 11.300781 149.710938 17.902344 149.710938 26.046875 L 149.710938 136.980469 " fill-opacity="1" fill-rule="nonzero"/></g><path fill="#4572b8" d="M 144.511719 132.78125 C 144.511719 140.652344 137.878906 147.035156 129.691406 147.035156 L 34.195312 147.035156 C 26.011719 147.035156 19.375 140.652344 19.375 132.78125 L 19.375 25.554688 C 19.375 17.683594 26.011719 11.300781 34.195312 11.300781 L 129.691406 11.300781 C 137.878906 11.300781 144.511719 17.683594 144.511719 25.554688 L 144.511719 132.78125 " fill-opacity="1" fill-rule="nonzero"/><path fill="#325286" d="M 52.949219 41.824219 C 52.949219 49.695312 48.097656 56.074219 42.109375 56.074219 C 36.125 56.074219 31.269531 49.695312 31.269531 41.824219 L 31.269531 20.96875 C 31.269531 13.097656 36.125 6.714844 42.109375 6.714844 C 48.097656 6.714844 52.949219 13.097656 52.949219 20.96875 L 52.949219 41.824219 " fill-opacity="1" fill-rule="nonzero"/><path fill="#325286" d="M 52.949219 125.230469 C 52.949219 133.101562 48.097656 139.484375 42.109375 139.484375 C 36.125 139.484375 31.269531 133.101562 31.269531 125.230469 L 31.269531 104.375 C 31.269531 96.507812 36.125 90.125 42.109375 90.125 C 48.097656 90.125 52.949219 96.507812 52.949219 104.375 L 52.949219 125.230469 " fill-opacity="1" fill-rule="nonzero"/><g clip-path="url(#ac6decf7cd)"><path fill="#385d97" d="M 49.160156 137.46875 C 49.160156 145.339844 42.769531 151.722656 34.886719 151.722656 L 19.550781 151.722656 C 11.664062 151.722656 5.273438 145.339844 5.273438 137.46875 L 5.273438 17.074219 C 5.273438 9.203125 11.664062 2.824219 19.550781 2.824219 L 34.886719 2.824219 C 42.769531 2.824219 49.160156 9.203125 49.160156 17.074219 L 49.160156 137.46875 " fill-opacity="1" fill-rule="nonzero"/></g><g clip-path="url(#f3de06d832)"><path fill="#4572b8" d="M 44.226562 137.46875 C 44.226562 145.339844 37.835938 151.722656 29.949219 151.722656 L 14.613281 151.722656 C 6.730469 151.722656 0.339844 145.339844 0.339844 137.46875 L 0.339844 17.074219 C 0.339844 9.203125 6.730469 2.824219 14.613281 2.824219 L 29.949219 2.824219 C 37.835938 2.824219 44.226562 9.203125 44.226562 17.074219 L 44.226562 137.46875 " fill-opacity="1" fill-rule="nonzero"/></g><path fill="#e9e9e9" d="M 132 41.910156 C 132 44.242188 130.105469 46.132812 127.769531 46.132812 L 63.96875 46.132812 C 61.628906 46.132812 59.738281 44.242188 59.738281 41.910156 L 59.738281 24.664062 C 59.738281 22.332031 61.628906 20.441406 63.96875 20.441406 L 127.769531 20.441406 C 130.105469 20.441406 132 22.332031 132 24.664062 L 132 41.910156 " fill-opacity="1" fill-rule="nonzero"/><path fill="#ffffff" d="M 78.417969 46.132812 L 72.25 46.132812 L 95.867188 20.441406 L 102.035156 20.441406 L 78.417969 46.132812 " fill-opacity="1" fill-rule="nonzero"/><path fill="#ffffff" d="M 100.890625 46.132812 L 83.53125 46.132812 L 105.914062 20.441406 L 123.273438 20.441406 L 100.890625 46.132812 " fill-opacity="1" fill-rule="nonzero"/><path fill="#375b94" d="M 78.75 55.15625 L 68.335938 55.15625 C 65.871094 55.15625 63.875 57.109375 63.875 59.519531 L 63.875 67.777344 C 63.875 70.1875 65.871094 72.140625 68.335938 72.140625 L 78.75 72.140625 C 81.214844 72.140625 83.214844 70.1875 83.214844 67.777344 L 83.214844 59.519531 C 83.214844 57.109375 81.214844 55.15625 78.75 55.15625 " fill-opacity="1" fill-rule="nonzero"/><path fill="#629ace" d="M 81.847656 67.144531 C 81.847656 69.433594 79.992188 71.285156 77.699219 71.285156 L 68.019531 71.285156 C 65.730469 71.285156 63.875 69.433594 63.875 67.144531 L 63.875 59.296875 C 63.875 57.011719 65.730469 55.15625 68.019531 55.15625 L 77.699219 55.15625 C 79.992188 55.15625 81.847656 57.011719 81.847656 59.296875 L 81.847656 67.144531 " fill-opacity="1" fill-rule="nonzero"/><path fill="#6eb4db" d="M 64.886719 65.304688 L 64.886719 59.078125 C 64.886719 57.261719 66.363281 55.789062 68.179688 55.789062 L 75.867188 55.789062 C 77.683594 55.789062 64.886719 67.125 64.886719 65.304688 " fill-opacity="1" fill-rule="nonzero"/><path fill="#598bba" d="M 81.847656 67.144531 C 81.847656 69.433594 79.992188 71.285156 77.699219 71.285156 L 68.019531 71.285156 C 83.703125 69.75 77.699219 55.15625 77.699219 55.15625 C 79.992188 55.15625 81.847656 57.011719 81.847656 59.296875 L 81.847656 67.144531 " fill-opacity="1" fill-rule="nonzero"/><path fill="#375b94" d="M 101.074219 55.15625 L 90.660156 55.15625 C 88.195312 55.15625 86.195312 57.109375 86.195312 59.519531 L 86.195312 67.777344 C 86.195312 70.1875 88.195312 72.140625 90.660156 72.140625 L 101.074219 72.140625 C 103.539062 72.140625 105.539062 70.1875 105.539062 67.777344 L 105.539062 59.519531 C 105.539062 57.109375 103.539062 55.15625 101.074219 55.15625 " fill-opacity="1" fill-rule="nonzero"/><path fill="#629ace" d="M 104.171875 67.144531 C 104.171875 69.433594 102.316406 71.285156 100.023438 71.285156 L 90.34375 71.285156 C 88.054688 71.285156 86.195312 69.433594 86.195312 67.144531 L 86.195312 59.296875 C 86.195312 57.011719 88.054688 55.15625 90.34375 55.15625 L 100.023438 55.15625 C 102.316406 55.15625 104.171875 57.011719 104.171875 59.296875 L 104.171875 67.144531 " fill-opacity="1" fill-rule="nonzero"/><path fill="#6eb4db" d="M 87.210938 65.304688 L 87.210938 59.078125 C 87.210938 57.261719 88.6875 55.789062 90.503906 55.789062 L 98.191406 55.789062 C 100.011719 55.789062 87.210938 67.125 87.210938 65.304688 " fill-opacity="1" fill-rule="nonzero"/><path fill="#598bba" d="M 104.171875 67.144531 C 104.171875 69.433594 102.316406 71.285156 100.023438 71.285156 L 90.34375 71.285156 C 106.027344 69.75 100.023438 55.15625 100.023438 55.15625 C 102.316406 55.15625 104.171875 57.011719 104.171875 59.296875 L 104.171875 67.144531 " fill-opacity="1" fill-rule="nonzero"/><path fill="#375b94" d="M 123.398438 55.15625 L 112.984375 55.15625 C 110.519531 55.15625 108.519531 57.109375 108.519531 59.519531 L 108.519531 67.777344 C 108.519531 70.1875 110.519531 72.140625 112.984375 72.140625 L 123.398438 72.140625 C 125.863281 72.140625 127.863281 70.1875 127.863281 67.777344 L 127.863281 59.519531 C 127.863281 57.109375 125.863281 55.15625 123.398438 55.15625 " fill-opacity="1" fill-rule="nonzero"/><path fill="#629ace" d="M 126.5 67.144531 C 126.5 69.433594 124.640625 71.285156 122.347656 71.285156 L 112.671875 71.285156 C 110.378906 71.285156 108.519531 69.433594 108.519531 67.144531 L 108.519531 59.296875 C 108.519531 57.011719 110.378906 55.15625 112.671875 55.15625 L 122.347656 55.15625 C 124.640625 55.15625 126.5 57.011719 126.5 59.296875 L 126.5 67.144531 " fill-opacity="1" fill-rule="nonzero"/><path fill="#6eb4db" d="M 109.535156 65.304688 L 109.535156 59.078125 C 109.535156 57.261719 111.007812 55.789062 112.828125 55.789062 L 120.515625 55.789062 C 122.335938 55.789062 109.535156 67.125 109.535156 65.304688 " fill-opacity="1" fill-rule="nonzero"/><path fill="#598bba" d="M 126.5 67.144531 C 126.5 69.433594 124.640625 71.285156 122.347656 71.285156 L 112.671875 71.285156 C 128.351562 69.75 122.347656 55.15625 122.347656 55.15625 C 124.640625 55.15625 126.5 57.011719 126.5 59.296875 L 126.5 67.144531 " fill-opacity="1" fill-rule="nonzero"/><path fill="#375b94" d="M 78.75 77.898438 L 68.335938 77.898438 C 65.871094 77.898438 63.875 79.851562 63.875 82.261719 L 63.875 90.523438 C 63.875 92.929688 65.871094 94.882812 68.335938 94.882812 L 78.75 94.882812 C 81.214844 94.882812 83.214844 92.929688 83.214844 90.523438 L 83.214844 82.261719 C 83.214844 79.851562 81.214844 77.898438 78.75 77.898438 " fill-opacity="1" fill-rule="nonzero"/><path fill="#629ace" d="M 81.847656 89.886719 C 81.847656 92.171875 79.992188 94.03125 77.699219 94.03125 L 68.019531 94.03125 C 65.730469 94.03125 63.875 92.171875 63.875 89.886719 L 63.875 82.039062 C 63.875 79.753906 65.730469 77.898438 68.019531 77.898438 L 77.699219 77.898438 C 79.992188 77.898438 81.847656 79.753906 81.847656 82.039062 L 81.847656 89.886719 " fill-opacity="1" fill-rule="nonzero"/><path fill="#6eb4db" d="M 64.886719 88.050781 L 64.886719 81.820312 C 64.886719 80.003906 66.363281 78.53125 68.179688 78.53125 L 75.867188 78.53125 C 77.683594 78.53125 64.886719 89.867188 64.886719 88.050781 " fill-opacity="1" fill-rule="nonzero"/><path fill="#598bba" d="M 81.847656 89.886719 C 81.847656 92.171875 79.992188 94.03125 77.699219 94.03125 L 68.019531 94.03125 C 83.703125 92.492188 77.699219 77.898438 77.699219 77.898438 C 79.992188 77.898438 81.847656 79.753906 81.847656 82.039062 L 81.847656 89.886719 " fill-opacity="1" fill-rule="nonzero"/><path fill="#375b94" d="M 101.074219 77.898438 L 90.660156 77.898438 C 88.195312 77.898438 86.195312 79.851562 86.195312 82.261719 L 86.195312 90.523438 C 86.195312 92.929688 88.195312 94.882812 90.660156 94.882812 L 101.074219 94.882812 C 103.539062 94.882812 105.539062 92.929688 105.539062 90.523438 L 105.539062 82.261719 C 105.539062 79.851562 103.539062 77.898438 101.074219 77.898438 " fill-opacity="1" fill-rule="nonzero"/><path fill="#629ace" d="M 104.171875 89.886719 C 104.171875 92.171875 102.316406 94.03125 100.023438 94.03125 L 90.34375 94.03125 C 88.054688 94.03125 86.195312 92.171875 86.195312 89.886719 L 86.195312 82.039062 C 86.195312 79.753906 88.054688 77.898438 90.34375 77.898438 L 100.023438 77.898438 C 102.316406 77.898438 104.171875 79.753906 104.171875 82.039062 L 104.171875 89.886719 " fill-opacity="1" fill-rule="nonzero"/><path fill="#6eb4db" d="M 87.210938 88.050781 L 87.210938 81.820312 C 87.210938 80.003906 88.6875 78.53125 90.503906 78.53125 L 98.191406 78.53125 C 100.011719 78.53125 87.210938 89.867188 87.210938 88.050781 " fill-opacity="1" fill-rule="nonzero"/><path fill="#598bba" d="M 104.171875 89.886719 C 104.171875 92.171875 102.316406 94.03125 100.023438 94.03125 L 90.34375 94.03125 C 106.027344 92.492188 100.023438 77.898438 100.023438 77.898438 C 102.316406 77.898438 104.171875 79.753906 104.171875 82.039062 L 104.171875 89.886719 " fill-opacity="1" fill-rule="nonzero"/><path fill="#375b94" d="M 123.398438 77.898438 L 112.984375 77.898438 C 110.519531 77.898438 108.519531 79.851562 108.519531 82.261719 L 108.519531 90.523438 C 108.519531 92.929688 110.519531 94.882812 112.984375 94.882812 L 123.398438 94.882812 C 125.863281 94.882812 127.863281 92.929688 127.863281 90.523438 L 127.863281 82.261719 C 127.863281 79.851562 125.863281 77.898438 123.398438 77.898438 " fill-opacity="1" fill-rule="nonzero"/><path fill="#629ace" d="M 126.5 89.886719 C 126.5 92.171875 124.640625 94.03125 122.347656 94.03125 L 112.671875 94.03125 C 110.378906 94.03125 108.519531 92.171875 108.519531 89.886719 L 108.519531 82.039062 C 108.519531 79.753906 110.378906 77.898438 112.671875 77.898438 L 122.347656 77.898438 C 124.640625 77.898438 126.5 79.753906 126.5 82.039062 L 126.5 89.886719 " fill-opacity="1" fill-rule="nonzero"/><path fill="#6eb4db" d="M 109.535156 88.050781 L 109.535156 81.820312 C 109.535156 80.003906 111.007812 78.53125 112.828125 78.53125 L 120.515625 78.53125 C 122.335938 78.53125 109.535156 89.867188 109.535156 88.050781 " fill-opacity="1" fill-rule="nonzero"/><path fill="#598bba" d="M 126.5 89.886719 C 126.5 92.171875 124.640625 94.03125 122.347656 94.03125 L 112.671875 94.03125 C 128.351562 92.492188 122.347656 77.898438 122.347656 77.898438 C 124.640625 77.898438 126.5 79.753906 126.5 82.039062 L 126.5 89.886719 " fill-opacity="1" fill-rule="nonzero"/><path fill="#375b94" d="M 78.75 100.644531 L 68.335938 100.644531 C 65.871094 100.644531 63.875 102.59375 63.875 105.003906 L 63.875 113.265625 C 63.875 115.671875 65.871094 117.625 68.335938 117.625 L 78.75 117.625 C 81.214844 117.625 83.214844 115.671875 83.214844 113.265625 L 83.214844 105.003906 C 83.214844 102.59375 81.214844 100.644531 78.75 100.644531 " fill-opacity="1" fill-rule="nonzero"/><path fill="#629ace" d="M 81.847656 112.628906 C 81.847656 114.917969 79.992188 116.769531 77.699219 116.769531 L 68.019531 116.769531 C 65.730469 116.769531 63.875 114.917969 63.875 112.628906 L 63.875 104.785156 C 63.875 102.496094 65.730469 100.644531 68.019531 100.644531 L 77.699219 100.644531 C 79.992188 100.644531 81.847656 102.496094 81.847656 104.785156 L 81.847656 112.628906 " fill-opacity="1" fill-rule="nonzero"/><path fill="#6eb4db" d="M 64.886719 110.792969 L 64.886719 104.5625 C 64.886719 102.746094 66.363281 101.273438 68.179688 101.273438 L 75.867188 101.273438 C 77.683594 101.273438 64.886719 112.609375 64.886719 110.792969 " fill-opacity="1" fill-rule="nonzero"/><path fill="#598bba" d="M 81.847656 112.628906 C 81.847656 114.917969 79.992188 116.769531 77.699219 116.769531 L 68.019531 116.769531 C 83.703125 115.234375 77.699219 100.644531 77.699219 100.644531 C 79.992188 100.644531 81.847656 102.496094 81.847656 104.785156 L 81.847656 112.628906 " fill-opacity="1" fill-rule="nonzero"/><path fill="#375b94" d="M 101.074219 100.644531 L 90.660156 100.644531 C 88.195312 100.644531 86.195312 102.59375 86.195312 105.003906 L 86.195312 113.265625 C 86.195312 115.671875 88.195312 117.625 90.660156 117.625 L 101.074219 117.625 C 103.539062 117.625 105.539062 115.671875 105.539062 113.265625 L 105.539062 105.003906 C 105.539062 102.59375 103.539062 100.644531 101.074219 100.644531 " fill-opacity="1" fill-rule="nonzero"/><path fill="#629ace" d="M 104.171875 112.628906 C 104.171875 114.917969 102.316406 116.769531 100.023438 116.769531 L 90.34375 116.769531 C 88.054688 116.769531 86.195312 114.917969 86.195312 112.628906 L 86.195312 104.785156 C 86.195312 102.496094 88.054688 100.644531 90.34375 100.644531 L 100.023438 100.644531 C 102.316406 100.644531 104.171875 102.496094 104.171875 104.785156 L 104.171875 112.628906 " fill-opacity="1" fill-rule="nonzero"/><path fill="#6eb4db" d="M 87.210938 110.792969 L 87.210938 104.5625 C 87.210938 102.746094 88.6875 101.273438 90.503906 101.273438 L 98.191406 101.273438 C 100.011719 101.273438 87.210938 112.609375 87.210938 110.792969 " fill-opacity="1" fill-rule="nonzero"/><path fill="#598bba" d="M 104.171875 112.628906 C 104.171875 114.917969 102.316406 116.769531 100.023438 116.769531 L 90.34375 116.769531 C 106.027344 115.234375 100.023438 100.644531 100.023438 100.644531 C 102.316406 100.644531 104.171875 102.496094 104.171875 104.785156 L 104.171875 112.628906 " fill-opacity="1" fill-rule="nonzero"/><path fill="#375b94" d="M 123.398438 100.644531 L 112.984375 100.644531 C 110.519531 100.644531 108.519531 102.59375 108.519531 105.003906 L 108.519531 113.265625 C 108.519531 115.671875 110.519531 117.625 112.984375 117.625 L 123.398438 117.625 C 125.863281 117.625 127.863281 115.671875 127.863281 113.265625 L 127.863281 105.003906 C 127.863281 102.59375 125.863281 100.644531 123.398438 100.644531 " fill-opacity="1" fill-rule="nonzero"/><path fill="#629ace" d="M 126.5 112.628906 C 126.5 114.917969 124.640625 116.769531 122.347656 116.769531 L 112.671875 116.769531 C 110.378906 116.769531 108.519531 114.917969 108.519531 112.628906 L 108.519531 104.785156 C 108.519531 102.496094 110.378906 100.644531 112.671875 100.644531 L 122.347656 100.644531 C 124.640625 100.644531 126.5 102.496094 126.5 104.785156 L 126.5 112.628906 " fill-opacity="1" fill-rule="nonzero"/><path fill="#6eb4db" d="M 109.535156 110.792969 L 109.535156 104.5625 C 109.535156 102.746094 111.007812 101.273438 112.828125 101.273438 L 120.515625 101.273438 C 122.335938 101.273438 109.535156 112.609375 109.535156 110.792969 " fill-opacity="1" fill-rule="nonzero"/><path fill="#598bba" d="M 126.5 112.628906 C 126.5 114.917969 124.640625 116.769531 122.347656 116.769531 L 112.671875 116.769531 C 128.351562 115.234375 122.347656 100.644531 122.347656 100.644531 C 124.640625 100.644531 126.5 102.496094 126.5 104.785156 L 126.5 112.628906 " fill-opacity="1" fill-rule="nonzero"/><path fill="#375b94" d="M 78.75 123.386719 L 68.335938 123.386719 C 65.871094 123.386719 63.875 125.335938 63.875 127.746094 L 63.875 136.007812 C 63.875 138.414062 65.871094 140.367188 68.335938 140.367188 L 78.75 140.367188 C 81.214844 140.367188 83.214844 138.414062 83.214844 136.007812 L 83.214844 127.746094 C 83.214844 125.335938 81.214844 123.386719 78.75 123.386719 " fill-opacity="1" fill-rule="nonzero"/><path fill="#629ace" d="M 81.847656 135.371094 C 81.847656 137.660156 79.992188 139.515625 77.699219 139.515625 L 68.019531 139.515625 C 65.730469 139.515625 63.875 137.660156 63.875 135.371094 L 63.875 127.527344 C 63.875 125.238281 65.730469 123.386719 68.019531 123.386719 L 77.699219 123.386719 C 79.992188 123.386719 81.847656 125.238281 81.847656 127.527344 L 81.847656 135.371094 " fill-opacity="1" fill-rule="nonzero"/><path fill="#6eb4db" d="M 64.886719 133.535156 L 64.886719 127.304688 C 64.886719 125.488281 66.363281 124.015625 68.179688 124.015625 L 75.867188 124.015625 C 77.683594 124.015625 64.886719 135.351562 64.886719 133.535156 " fill-opacity="1" fill-rule="nonzero"/><path fill="#598bba" d="M 81.847656 135.371094 C 81.847656 137.660156 79.992188 139.515625 77.699219 139.515625 L 68.019531 139.515625 C 83.703125 137.976562 77.699219 123.386719 77.699219 123.386719 C 79.992188 123.386719 81.847656 125.238281 81.847656 127.527344 L 81.847656 135.371094 " fill-opacity="1" fill-rule="nonzero"/><path fill="#375b94" d="M 101.074219 123.386719 L 90.660156 123.386719 C 88.195312 123.386719 86.195312 125.335938 86.195312 127.746094 L 86.195312 136.007812 C 86.195312 138.414062 88.195312 140.367188 90.660156 140.367188 L 101.074219 140.367188 C 103.539062 140.367188 105.539062 138.414062 105.539062 136.007812 L 105.539062 127.746094 C 105.539062 125.335938 103.539062 123.386719 101.074219 123.386719 " fill-opacity="1" fill-rule="nonzero"/><path fill="#629ace" d="M 104.171875 135.371094 C 104.171875 137.660156 102.316406 139.515625 100.023438 139.515625 L 90.34375 139.515625 C 88.054688 139.515625 86.195312 137.660156 86.195312 135.371094 L 86.195312 127.527344 C 86.195312 125.238281 88.054688 123.386719 90.34375 123.386719 L 100.023438 123.386719 C 102.316406 123.386719 104.171875 125.238281 104.171875 127.527344 L 104.171875 135.371094 " fill-opacity="1" fill-rule="nonzero"/><path fill="#6eb4db" d="M 87.210938 133.535156 L 87.210938 127.304688 C 87.210938 125.488281 88.6875 124.015625 90.503906 124.015625 L 98.191406 124.015625 C 100.011719 124.015625 87.210938 135.351562 87.210938 133.535156 " fill-opacity="1" fill-rule="nonzero"/><path fill="#598bba" d="M 104.171875 135.371094 C 104.171875 137.660156 102.316406 139.515625 100.023438 139.515625 L 90.34375 139.515625 C 106.027344 137.976562 100.023438 123.386719 100.023438 123.386719 C 102.316406 123.386719 104.171875 125.238281 104.171875 127.527344 L 104.171875 135.371094 " fill-opacity="1" fill-rule="nonzero"/><path fill="#375b94" d="M 123.398438 123.386719 L 112.984375 123.386719 C 110.519531 123.386719 108.519531 125.335938 108.519531 127.746094 L 108.519531 136.007812 C 108.519531 138.414062 110.519531 140.367188 112.984375 140.367188 L 123.398438 140.367188 C 125.863281 140.367188 127.863281 138.414062 127.863281 136.007812 L 127.863281 127.746094 C 127.863281 125.335938 125.863281 123.386719 123.398438 123.386719 " fill-opacity="1" fill-rule="nonzero"/><path fill="#629ace" d="M 126.5 135.371094 C 126.5 137.660156 124.640625 139.515625 122.347656 139.515625 L 112.671875 139.515625 C 110.378906 139.515625 108.519531 137.660156 108.519531 135.371094 L 108.519531 127.527344 C 108.519531 125.238281 110.378906 123.386719 112.671875 123.386719 L 122.347656 123.386719 C 124.640625 123.386719 126.5 125.238281 126.5 127.527344 L 126.5 135.371094 " fill-opacity="1" fill-rule="nonzero"/><path fill="#6eb4db" d="M 109.535156 133.535156 L 109.535156 127.304688 C 109.535156 125.488281 111.007812 124.015625 112.828125 124.015625 L 120.515625 124.015625 C 122.335938 124.015625 109.535156 135.351562 109.535156 133.535156 " fill-opacity="1" fill-rule="nonzero"/><path fill="#598bba" d="M 126.5 135.371094 C 126.5 137.660156 124.640625 139.515625 122.347656 139.515625 L 112.671875 139.515625 C 128.351562 137.976562 122.347656 123.386719 122.347656 123.386719 C 124.640625 123.386719 126.5 125.238281 126.5 127.527344 L 126.5 135.371094 " fill-opacity="1" fill-rule="nonzero"/><path fill="#2b4672" d="M 15.253906 151.722656 C 15.46875 156.195312 19.160156 159.757812 23.691406 159.757812 C 28.226562 159.757812 31.914062 156.195312 32.128906 151.722656 L 15.253906 151.722656 " fill-opacity="1" fill-rule="nonzero"/><path fill="#2b4672" d="M 65.574219 151.722656 C 65.71875 154.726562 68.195312 157.121094 71.238281 157.121094 C 74.285156 157.121094 76.761719 154.726562 76.90625 151.722656 L 65.574219 151.722656 " fill-opacity="1" fill-rule="nonzero"/></svg>